<?xml version="1.0" standalone="no"?>
<svg xmlns:xlink="http://www.w3.org/1999/xlink" id="wave" style="transform:rotate(0deg); transition: 0.3s" viewBox="0 0 1440 490" version="1.1" xmlns="http://www.w3.org/2000/svg"><defs><linearGradient id="sw-gradient-0" x1="0" x2="0" y1="1" y2="0"><stop stop-color="rgba(95.594, 62, 243, 1)" offset="0%"/><stop stop-color="rgba(14.96, 11, 255, 0.78)" offset="100%"/></linearGradient></defs><path style="transform:translate(0, 0px); opacity:1" fill="url(#sw-gradient-0)" d="M0,196L60,236.8C120,278,240,359,360,359.3C480,359,600,278,720,236.8C840,196,960,196,1080,196C1200,196,1320,196,1440,220.5C1560,245,1680,294,1800,261.3C1920,229,2040,114,2160,114.3C2280,114,2400,229,2520,261.3C2640,294,2760,245,2880,253.2C3000,261,3120,327,3240,310.3C3360,294,3480,196,3600,196C3720,196,3840,294,3960,277.7C4080,261,4200,131,4320,81.7C4440,33,4560,65,4680,65.3C4800,65,4920,33,5040,32.7C5160,33,5280,65,5400,130.7C5520,196,5640,294,5760,343C5880,392,6000,392,6120,375.7C6240,359,6360,327,6480,277.7C6600,229,6720,163,6840,171.5C6960,180,7080,261,7200,269.5C7320,278,7440,212,7560,228.7C7680,245,7800,343,7920,318.5C8040,294,8160,147,8280,138.8C8400,131,8520,261,8580,326.7L8640,392L8640,490L8580,490C8520,490,8400,490,8280,490C8160,490,8040,490,7920,490C7800,490,7680,490,7560,490C7440,490,7320,490,7200,490C7080,490,6960,490,6840,490C6720,490,6600,490,6480,490C6360,490,6240,490,6120,490C6000,490,5880,490,5760,490C5640,490,5520,490,5400,490C5280,490,5160,490,5040,490C4920,490,4800,490,4680,490C4560,490,4440,490,4320,490C4200,490,4080,490,3960,490C3840,490,3720,490,3600,490C3480,490,3360,490,3240,490C3120,490,3000,490,2880,490C2760,490,2640,490,2520,490C2400,490,2280,490,2160,490C2040,490,1920,490,1800,490C1680,490,1560,490,1440,490C1320,490,1200,490,1080,490C960,490,840,490,720,490C600,490,480,490,360,490C240,490,120,490,60,490L0,490Z"/></svg>