<?xml version="1.0" standalone="no"?>
<svg xmlns:xlink="http://www.w3.org/1999/xlink" id="wave" style="transform:rotate(0deg); transition: 0.3s" viewBox="0 0 1440 490" version="1.1" xmlns="http://www.w3.org/2000/svg"><defs><linearGradient id="sw-gradient-0" x1="0" x2="0" y1="1" y2="0"><stop stop-color="rgba(95.594, 62, 243, 1)" offset="0%"/><stop stop-color="rgba(14.96, 11, 255, 0.78)" offset="100%"/></linearGradient></defs><path style="transform:translate(0, 0px); opacity:1" fill="url(#sw-gradient-0)" d="M0,0L1440,245L2880,49L4320,392L5760,343L7200,392L8640,196L10080,0L11520,147L12960,392L14400,392L15840,343L17280,98L18720,392L20160,245L21600,147L23040,0L24480,441L25920,441L27360,392L28800,294L30240,392L31680,147L33120,147L34560,392L34560,490L33120,490L31680,490L30240,490L28800,490L27360,490L25920,490L24480,490L23040,490L21600,490L20160,490L18720,490L17280,490L15840,490L14400,490L12960,490L11520,490L10080,490L8640,490L7200,490L5760,490L4320,490L2880,490L1440,490L0,490Z"/></svg>